PathFileType	4	(X/Y/Z)	Run_400 01
DataRate	CameraRate	NumFrames	NumMarkers	Units	OrigDataRate	OrigDataStartFrame	OrigNumFrames
120	120	6	41	mm	120	196	125
Frame#	Time	LASI			RASI			LPSI			RPSI			RTH1			RTH3			LTH1			LTH2			LTH3			RTB1			RTB2			RTB3			LTB1			LTB2			LTB3			RCAL			RTOE			RMT5			LCAL			LTOE			LMT5			LACR			RACR			CLAV			C7			RUA1			RUA2			RUA3			RLEL			RMEL			LUA1			LUA2			LUA3			LLEL			LMEL			RFAsuperior			RFAradius			RFAulna			LFAsuperior			LFAradius			LFAulna			
		X1	Y1	Z1	X2	Y2	Z2	X3	Y3	Z3	X4	Y4	Z4	X5	Y5	Z5	X6	Y6	Z6	X7	Y7	Z7	X8	Y8	Z8	X9	Y9	Z9	X10	Y10	Z10	X11	Y11	Z11	X12	Y12	Z12	X13	Y13	Z13	X14	Y14	Z14	X15	Y15	Z15	X16	Y16	Z16	X17	Y17	Z17	X18	Y18	Z18	X19	Y19	Z19	X20	Y20	Z20	X21	Y21	Z21	X22	Y22	Z22	X23	Y23	Z23	X24	Y24	Z24	X25	Y25	Z25	X26	Y26	Z26	X27	Y27	Z27	X28	Y28	Z28	X29	Y29	Z29	X30	Y30	Z30	X31	Y31	Z31	X32	Y32	Z32	X33	Y33	Z33	X34	Y34	Z34	X35	Y35	Z35	X36	Y36	Z36	X37	Y37	Z37	X38	Y38	Z38	X39	Y39	Z39	X40	Y40	Z40	X41	Y41	Z41	

190	1.916667	958.208922	983.393913	-457.763972	938.03932	970.742563	-221.948158	796.83153	1020.220259	-395.396122	782.407977	1022.284855	-297.600635	859.061717	805.445437	-173.497519	832.625177	551.861364	-248.687814	960.530672	816.5493300000001	-515.815414	1076.738561	766.0478900000001	-504.160795	1084.391697	643.61068	-496.532087	806.7581750000001	327.766817	-339.584172	745.40986	284.66413	-281.495484	726.157106	232.240306	-353.290806	1068.715052	476.472748	-423.722554	983.563729	491.100595	-499.503625	906.133762	425.507528	-436.080223	541.414146	130.12213	-360.585009	738.955996	70.82082800000001	-395.293964	719.093422	60.629586	-300.574749	728.208366	462.21508	-437.944822	821.70853	275.146634	-428.661892	802.409031	287.086281	-517.732496	946.518156	1439.628955	-520.506758	936.323592	1426.891228	-127.482308	1000.57441	1422.728453	-302.989838	883.926915	1491.864621	-338.526994	876.964319	1292.637976	-86.13629400000001	802.911323	1291.242329	-101.880945	834.5785090000001	1217.337776	-61.798239	803.597177	1153.539661	-43.800013	772.90192	1135.190297	-118.685373	854.267595	1347.558637	-586.84528	776.026101	1333.649876	-582.106481	815.049623	1265.726451	-606.066916	741.541914	1223.838762	-635.525178	700.621038	1236.255131	-561.521158	915.389412	1100.50919	-80.179917	998.253243	1062.768989	-159.350944	984.998614	1006.689751	-117.956054	811.90598	1118.289763	-605.100067	877.689208	1060.519423	-511.611843	855.835315	1022.425089	-564.956054	
191	1.925	958.837672	990.457819	-456.485017	943.989319	973.699743	-221.627043	797.851297	1027.110201	-392.62906	787.591825	1026.992642	-294.89094	857.135517	811.421123	-174.188583	814.3518769999999	559.5351460000001	-249.551849	963.278817	825.986486	-515.176918	1079.941258	778.422735	-502.182086	1091.158576	655.959524	-493.341515	779.648182	334.876186	-339.850485	717.830182	292.973657	-281.170883	698.489454	240.070047	-352.882778	1085.511436	482.008351	-420.653506	999.290128	489.012409	-496.892838	927.50958	415.684136	-434.378254	513.520269	141.559864	-358.771371	707.525798	70.90592599999999	-395.358765	686.956473	61.039357	-300.663298	747.384585	434.415331	-437.181004	860.096097	258.582224	-427.094406	840.627929	268.402905	-516.675413	942.509684	1447.137355	-521.004038	939.269407	1434.80101	-128.77039	999.9816049999999	1429.828424	-305.204417	882.74632	1498.096465	-338.58806	882.32155	1299.763506	-86.149278	807.79511	1297.500876	-99.750783	841.7203940000001	1224.127385	-61.100492	811.89139	1159.680406	-42.875616	780.3004989999999	1141.116688	-117.395127	849.08275	1358.032972	-587.089786	771.067571	1345.248358	-581.207357	808.591303	1276.8237	-606.2020220000001	733.837707	1236.2763	-634.9274	693.77081	1249.190939	-560.1182669999999	924.893869	1112.502467	-82.24091799999999	1007.50234	1079.30792	-164.001236	997.6024629999999	1022.254549	-123.202931	804.137491	1130.919083	-605.292346	870.431153	1071.959743	-512.4590439999999	848.105457	1034.24601	-565.787916	
192	1.933333	959.9092439999999	998.151264	-455.901903	950.0753549999999	976.9252719999999	-222.149428	799.3448959999999	1034.286326	-390.213759	793.010691	1032.041857	-292.475002	856.8700710000001	817.24977	-174.902863	797.739433	568.733464	-249.282219	966.555799	835.57894	-514.934949	1082.963601	790.4591840000001	-500.030318	1096.436327	667.454	-490.113375	754.441161	344.001583	-339.166902	692.163817	303.360194	-279.818533	672.839651	249.442473	-350.94919	1100.843906	487.164883	-417.76611	1014.822827	485.963033	-494.249004	949.674541	405.741572	-432.070219	488.210403	155.128581	-356.874186	676.833812	70.553096	-395.342405	655.565213	61.391134	-300.723425	768.929004	406.013273	-435.985957	899.400354	243.474635	-424.666078	880.091012	251.07976	-514.686999	938.79782	1454.760957	-521.545933	941.884533	1442.992696	-130.153539	999.3967259999999	1437.120454	-307.392999	881.671102	1504.528679	-338.737374	887.1352000000001	1307.415181	-86.08324500000001	812.180355	1304.185488	-97.53018899999999	848.384362	1231.437766	-60.300721	819.499697	1166.465922	-41.895984	786.50076	1147.939216	-115.792419	844.158753	1368.384935	-587.044562	766.391348	1356.821313	-579.582971	802.592036	1288.122194	-606.235412	726.722167	1248.661255	-634.170526	687.664882	1261.879959	-558.449359	933.150787	1124.844987	-84.155552	1015.058477	1095.793932	-168.687144	1008.419779	1038.112053	-128.318246	797.009327	1143.277211	-605.224424	864.126342	1083.478702	-512.882652	841.307411	1046.054214	-566.273957	
193	1.941667	961.373283	1006.45695	-456.190251	955.525738	980.7639349999999	-223.698401	801.3097330000001	1041.61025	-388.299962	797.937454	1037.693128	-290.464272	858.0740489999999	822.630574	-175.657953	782.733059	579.028331	-248.014398	970.365621	845.411896	-515.3510659999999	1085.857468	801.898132	-497.896508	1100.228089	677.710496	-486.734169	731.268011	354.718075	-337.213451	668.44772	315.486413	-277.304759	649.670972	259.983199	-347.634558	1114.753815	491.783775	-415.063652	1030.142991	482.024538	-491.599275	972.634222	395.844292	-429.254344	465.762227	170.150186	-354.961483	646.727975	69.95468700000001	-395.088489	624.860265	61.710948	-300.657174	792.769154	377.402185	-434.491924	939.671474	229.990262	-421.439172	920.630544	235.272201	-511.71707	935.310871	1462.359884	-522.08477	944.259868	1451.302146	-131.616696	998.788102	1444.39557	-309.546135	880.69286	1511.014278	-338.978493	891.494246	1315.396424	-85.964946	816.230498	1311.292045	-95.301109	854.531086	1239.115637	-59.412068	826.407856	1173.699645	-40.899096	791.6492950000001	1155.374559	-113.973836	839.425459	1378.3964	-586.719577	761.873387	1368.101459	-577.398116	796.907833	1299.378197	-606.224197	720.110127	1260.729264	-633.304616	682.1803190000001	1274.086966	-556.555243	940.1753670000001	1137.131267	-86.1763	1021.149205	1112.001495	-173.27953	1017.588628	1053.919826	-133.242057	790.4474269999999	1155.144337	-604.977457	858.702149	1094.908164	-513.057348	835.324694	1057.62526	-566.439003	
194	1.95	963.081098	1015.147998	-457.177005	960.218825	985.2588490000001	-225.966788	803.666497	1048.90905	-386.879377	802.206608	1043.841807	-288.925055	859.966244	827.860819	-176.277621	769.024225	590.121671	-246.167611	974.53858	855.507476	-516.482197	1088.673442	812.368377	-495.976105	1102.565306	686.471122	-483.048762	710.006986	366.551146	-333.874282	646.4060490000001	328.965523	-273.742167	629.031602	271.297033	-343.327257	1127.342899	495.677825	-412.463563	1045.202552	477.286216	-488.928574	996.105729	386.105596	-426.118684	446.376268	186.156419	-352.895641	617.286237	69.743087	-394.36856	594.691276	62.269358	-300.308333	818.818112	348.923217	-432.826318	980.708248	218.401679	-417.416482	962.111759	221.166904	-507.821016	931.962307	1469.749485	-522.545222	946.500357	1459.534242	-133.145768	998.145664	1451.484415	-311.621881	879.797985	1517.403035	-339.273403	895.531803	1323.49129	-85.827033	820.128063	1318.740654	-93.21184	860.139553	1247.01692	-58.429108	832.614377	1181.192632	-39.898655	796.007594	1163.09288	-112.064286	834.865345	1387.922796	-586.204403	757.465822	1378.823507	-574.897753	791.446588	1310.339833	-606.188885	713.939706	1272.237022	-632.381421	677.169031	1285.585242	-554.554834	946.055879	1149.125345	-88.416588	1026.006179	1127.763417	-177.569552	1025.253356	1069.348644	-137.94119	784.4375250000001	1166.409732	-604.623335	854.071208	1106.07963	-513.13095	830.055207	1068.768268	-566.312875	
195	1.958333	964.897235	1023.819571	-458.509897	964.504688	990.179087	-228.309674	806.312226	1055.991153	-385.862916	806.081608	1050.136266	-287.879127	861.583632	833.42463	-176.555017	756.331022	601.904061	-244.187911	978.73855	865.632862	-518.021216	1091.355262	821.42767	-494.410617	1103.48833	693.631315	-478.919635	690.545117	379.1496	-329.333617	625.710776	343.510191	-269.457403	610.629235	283.064785	-338.327884	1138.729973	498.711697	-409.759231	1060.029175	471.819691	-486.205945	1019.76694	376.596362	-422.804624	430.112562	202.996774	-350.325579	588.918166	70.858571	-392.898992	564.983705	63.65995	-299.482385	847.016376	320.940003	-431.122085	1022.059177	208.970258	-412.531672	1004.347785	208.926	-503.043862	928.695021	1476.70623	-522.868168	948.678001	1467.471037	-134.71521	997.48405	1458.239292	-313.543415	878.963737	1523.521398	-339.546102	899.394713	1331.46812	-85.693989	824.000618	1326.351567	-91.410938	865.224801	1254.991119	-57.310099	838.144726	1188.756169	-38.86877	799.798466	1170.802469	-110.137894	830.4928650000001	1396.857908	-585.610782	753.1960319999999	1388.742544	-572.339965	786.176998	1320.752194	-606.117912	708.1687910000001	1282.961628	-631.440773	672.494997	1296.125236	-552.6093550000001	950.947347	1160.710378	-90.7098	1029.823032	1142.896403	-181.343883	1031.527308	1084.058108	-142.407098	778.993609	1177.005758	-604.220504	850.139862	1116.814569	-513.196517	825.42798	1079.321106	-565.9621540000001	
